# xmcd
#
# Track frame offsets:
#	150
#	14501
#	29044
#	45813
#	61044
#	82740
#	101033
#	117081
#	133340
#	146809
#	163492
#	178770
#	196001
#	212186
#	233543
#	249828
#	266125
#	280803
#	297585
#
# Disc length: 4160 seconds
#
# Revision: 1
# Processed by: cddbd v1.5.2PL0 Copyright (c) Steve Scherf et al.
# Submitted via: audiograbber 1.83.01
#
DISCID=17103e13
DTITLE=Bellamy Brothers - The Anthology Vol.1
DYEAR=2009
DGENRE=Country
TTITLE0=Let Your Love Flow
TTITLE1=If I Said You Have A Beautiful Body (Would You Hold It Against Me)
TTITLE2=Guilty Of The Crime (With The Bacon Brothers)
TTITLE3=Redneck Girl
TTITLE4=The Fires Of Time
TTITLE5=Old Hippie
TTITLE6=It Could Be Persuaded (With Cliff Richard)
TTITLE7=I Need More Of You
TTITLE8=Do You Love As Good As You Look
TTITLE9=Trust Me
TTITLE10=Dancin' Cowboys
TTITLE11=When I'm Away From You
TTITLE12=Crazy From The Heart
TTITLE13=Heart Of My Heart
TTITLE14=Feelin' The Feelin
TTITLE15=Sugar Daddy
TTITLE16=Where Did The Common Sense Go
TTITLE17=For All The Wrong Reasons
TTITLE18=Kids Of The Baby Boom
EXTD=
EXTT0=
EXTT1=
EXTT2=
EXTT3=
EXTT4=
EXTT5=
EXTT6=
EXTT7=
EXTT8=
EXTT9=
EXTT10=
EXTT11=
EXTT12=
EXTT13=
EXTT14=
EXTT15=
EXTT16=
EXTT17=
EXTT18=
PLAYORDER=
